<?xml version="1.0" encoding="utf-8"?>
<!-- Generator: Adobe Illustrator 25.0.0, SVG Export Plug-In . SVG Version: 6.00 Build 0)  -->
<svg version="1.1" id="Capa_1" xmlns="http://www.w3.org/2000/svg" xmlns:xlink="http://www.w3.org/1999/xlink" x="0px" y="0px"
	 viewBox="0 0 315.6 70.3" style="enable-background:new 0 0 315.6 70.3;" xml:space="preserve">
<style type="text/css">
	.st0{fill:#4547E6;}
	.st1{fill:#ED3237;}
	.st2{fill:#FFFFFF;}
</style>
<g>
	<path class="st0" d="M37.3,6.9c-0.1,0-0.3,0.1-0.5,0.2c-0.2,0.1-0.5,0.3-0.8,0.4c-0.3,0.2-0.6,0.4-0.8,0.5
		c-0.2,0.1-0.4,0.2-0.4,0.2c-0.7,0.4-1.3,0.7-2,1.1c-0.7,0.4-1.3,0.7-1.9,1.1c-2.9,1.8-5.5,3.8-8,5.8c-2.5,2.1-4.8,4.3-6.9,6.7
		c-1.4,1.5-2.7,3.2-3.8,5c-1.2,1.8-2.2,3.7-3,5.6c-0.9,2-1.5,4-2,6c-0.5,2-0.7,4.1-0.7,6c0.1,1.5,0.2,2.9,0.5,4.1
		c0.3,1.3,0.8,2.4,1.5,3c1.1,1,2.4,1.5,3.9,1.4c1.5-0.1,3.1-0.5,4.9-1.3c1.7-0.8,3.5-1.9,5.5-3.3c1.9-1.4,3.8-3,5.7-4.7
		c1.8-1.7,3.6-3.5,5.3-5.3c1.7-1.8,3.2-3.5,4.6-5.2c0.4-0.3,0.7-0.7,1-1.3c0.3-0.5,0.7-1,1-1.3c0.4-0.2,0.7-0.1,1,0.2
		c0.2,0.4,0.4,0.8,0.4,1.2c-0.1,2.1-0.5,4.1-1.3,5.8c-0.8,1.8-1.8,3.4-2.9,4.9c-1.4,1.8-3,3.5-4.9,5.2c-1.8,1.8-3.8,3.4-6,4.8
		c-2.1,1.4-4.3,2.6-6.6,3.5s-4.4,1.3-6.6,1.3c-1.8,0-3.5-0.3-4.8-1c-1.4-0.7-2.5-1.5-3.5-2.6c-1-1-1.8-2.2-2.4-3.6
		c-0.7-1.4-1.1-2.8-1.5-4.4c-0.1-0.4-0.1-1-0.3-1.5C1,45.1,1,44.5,1,44c0-2.6,0.3-4.9,0.8-7.2c0.5-2.1,1.1-4.3,1.8-6.3
		c0.3-1,0.7-1.8,1.2-2.7c1.4-3,3.2-5.9,5.5-8.7c2.2-2.7,4.7-5.3,7.4-7.6c2.7-2.3,5.6-4.3,8.6-6c3-1.7,6.1-3,9.2-3.9
		c0.8-0.3,1.6-0.3,2.4,0c0.2,0.1,0.5,0.1,0.7,0.1c0.2,0,0.5-0.1,0.8-0.4c0.7-0.4,1.5-0.4,2.4-0.1c0.8,0.4,1.3,1.1,1.3,2.1
		c0.1,1.4,0,2.7-0.5,4.1c-0.4,1.2-0.7,2.3-1,3.3c-0.4,1-0.8,2.1-1.2,3.1c-0.4,1.1-0.7,2.2-1.1,3.5c-0.4,1.3-0.7,2.7-0.9,4.2
		c-0.1,0.2-0.1,0.5-0.2,0.8c-0.1,0.4-0.3,0.6-0.4,0.7c-0.2,0.4-0.6,0.7-1,0.7c-0.4,0.1-0.8-0.1-1.2-0.4c-0.1-0.1-0.2-0.3-0.3-0.4
		c-0.1-0.1-0.3-0.3-0.4-0.5c-0.5-1.1-0.8-2.4-0.9-3.8c-0.1-1.4-0.1-2.9,0.1-4.4c0.1-1.4,0.5-2.8,1-4.1S36.5,7.8,37.3,6.9z"/>
	<path class="st1" d="M66.4,44.9c0.6,2,0.8,4,0.4,5.8c-0.4,1.9-1.1,3.8-2,5.5c-1.1,1.8-2.4,3.4-3.9,4.9c-1.6,1.5-3.3,2.7-5.1,3.9
		c-1.8,1.2-3.5,2.1-5.4,2.8c-1.9,0.7-3.6,1.2-5.2,1.4c-4.9-0.1-8.2-1.3-10.1-3.8c-1.9-2.5-2-5.6-0.4-9.2c1.1-1.7,2.6-3,4.4-4.1
		c1.9-1,3.6-1.8,5.3-2.2c0.3-0.1,0.8-0.2,1.5-0.3c0.6-0.1,1.2-0.2,1.8-0.2c0.5,0.1,0.9,0.2,1,0.4c0.1,0.2-0.2,0.4-1,0.9
		c-0.7,0.4-1.5,1-2.5,1.6c-1,0.7-1.9,1.5-2.8,2.3c-1,0.9-1.8,1.8-2.6,2.7c-0.8,1-1.4,2-1.9,3.1c-0.3,0.7-0.4,1.3-0.3,1.9
		c0.1,0.6,0.6,1.2,1.4,1.6c1.2,0.6,2.8,0.6,4.9,0c2-0.6,4.2-1.6,6.4-2.9c2.2-1.3,4.3-3,6.1-4.9c1.9-1.9,3.3-3.8,4.1-5.8
		c0.7-2.4,0.9-4.3,0.4-5.8c-0.4-1.5-1.2-2.7-2.4-3.5c-1.2-0.8-2.6-1.2-4.3-1.4c-1.7-0.1-3.5-0.1-5.2,0.2c-0.4,0-0.8,0-1.1,0.1
		c-0.8,0.1-1.3-0.3-1.6-0.9s-0.2-1.2,0.3-1.8c0.6-0.8,1.3-1.6,2.1-2.3c0.7-0.6,1.5-1.3,2.3-1.9c0.6-0.4,1.7-1.1,3.2-1.9
		c1.5-0.8,3.1-1.6,4.6-2.5c1.5-0.8,2.7-1.7,3.6-2.5c1-0.8,1.2-1.5,0.6-2c-1.4-0.4-3-0.7-4.7-0.6c-1.7,0.1-3.4,0.4-5.1,0.9
		c-1.7,0.4-3.4,1.1-5,1.8c-1.7,0.8-3.1,1.5-4.3,2.2c-0.9,0.4-1.4,0.4-1.6-0.1c-0.2-0.4-0.1-1.2,0.2-1.9c0.3-0.8,0.7-1.7,1.3-2.7
		c0.6-0.9,1.2-1.6,2-2.1c3.5-1.7,6.6-2.5,9.5-2.6c2.8-0.1,5.6,0.5,8.2,1.7c1.1,0.6,1.9,1.4,2.7,2.6c0.6,1.2,0.8,2.5,0.4,3.9
		c-0.2,1.1-0.6,2-1.4,2.9c-0.8,0.9-1.7,1.7-2.7,2.4c-1,0.7-2,1.3-3,1.9c-1.1,0.6-1.9,1.2-2.7,1.8c1,0.5,1.9,1.1,2.9,1.6
		c1,0.6,1.9,1.2,2.7,1.9c0.8,0.6,1.6,1.4,2.2,2.2C65.6,42.8,66.1,43.8,66.4,44.9z"/>
	<g>
		
			<rect x="182.6" y="32.9" transform="matrix(0.2372 -0.9714 0.9714 0.2372 122.1876 221.9371)" class="st2" width="39.6" height="0.5"/>
		<g>
			<path class="st2" d="M205.3,13.6c0.2-1,1.2-1.6,2.2-1.3c1,0.2,1.6,1.2,1.3,2.2c-0.2,1-1.2,1.6-2.2,1.3
				C205.7,15.5,205.1,14.6,205.3,13.6z"/>
		</g>
		<g>
			<path class="st2" d="M196,51.9c-0.2,1,0.4,2,1.3,2.2c1,0.2,2-0.4,2.2-1.3c0.2-1-0.4-2-1.3-2.2C197.2,50.3,196.2,50.9,196,51.9z"
				/>
		</g>
	</g>
	<g>
		<path class="st2" d="M99.5,18.2c1.2,1.2,1.8,3,1.8,5.3c0,2.3-0.6,4.1-1.8,5.3c-1.2,1.2-2.9,1.8-5.1,1.8h-4v6.7h-4.1V16.4h8.1
			C96.6,16.4,98.3,17,99.5,18.2z M97.3,23.5c0-2.3-1-3.4-3-3.4h-3.8v6.9h3.8c1,0,1.7-0.3,2.2-0.8C97,25.6,97.3,24.7,97.3,23.5z"/>
		<path class="st2" d="M119,37.2h-4.7l-4.1-7.7h-2.9v7.7h-4.1V20.9c0-1.6,0.4-2.7,1.1-3.4c0.7-0.7,1.9-1.1,3.6-1.1h3.4
			c2.1,0,3.7,0.6,4.9,1.9c1.2,1.3,1.8,2.8,1.8,4.8c0,1.4-0.4,2.6-1.1,3.6c-0.7,1-1.6,1.7-2.7,2.1L119,37.2z M113.3,25.2
			c0.6-0.6,0.8-1.3,0.8-2.2c0-0.9-0.3-1.6-0.8-2.1c-0.5-0.5-1.3-0.8-2.1-0.8h-2c-1.2,0-1.8,0.6-1.8,1.8v4.2h3.8
			C112,26.1,112.7,25.8,113.3,25.2z"/>
		<path class="st2" d="M136.2,25.8v1.6c0,3.5-0.7,6-2,7.6c-1.3,1.6-3.4,2.4-6.3,2.4c-2.9,0-5-0.8-6.3-2.4c-1.3-1.6-1.9-4.1-1.9-7.7
			v-1.5c0-3.2,0.7-5.6,2-7.2c1.3-1.6,3.4-2.4,6.2-2.4c2.9,0,4.9,0.8,6.3,2.4C135.5,20.2,136.2,22.6,136.2,25.8z M132.1,27.3v-1.1
			c0-1.9-0.2-3.4-0.7-4.5c-0.5-1.3-1.7-1.9-3.5-1.9c-1.8,0-3,0.6-3.5,1.9c-0.4,1.1-0.7,2.5-0.7,4.5v1.1c0,2.5,0.4,4.2,1.1,5.1
			c0.3,0.4,0.7,0.7,1.2,0.9c0.5,0.3,1.2,0.4,1.9,0.4c0.7,0,1.4-0.1,1.9-0.4c0.5-0.3,0.9-0.6,1.2-0.9c0.3-0.4,0.5-0.9,0.7-1.5
			C132,30,132.1,28.8,132.1,27.3z"/>
		<path class="st2" d="M154.5,16.4v18.7c0,0.6-0.2,1.2-0.6,1.6c-0.4,0.5-0.8,0.7-1.4,0.7c-1.3,0-2.4-0.8-3.3-2.3L142,23.8v13.3H138
			V16.4h3.9l8.5,13.6V16.4H154.5z"/>
		<path class="st2" d="M170.7,20h-5.6v17.2h-4.1V20h-5.5v-3.6h15.2V20z"/>
		<path class="st2" d="M187.7,25.8v1.6c0,3.5-0.7,6-2,7.6c-1.3,1.6-3.4,2.4-6.3,2.4c-2.9,0-5-0.8-6.3-2.4c-1.3-1.6-1.9-4.1-1.9-7.7
			v-1.5c0-3.2,0.7-5.6,2-7.2c1.3-1.6,3.4-2.4,6.2-2.4c2.9,0,4.9,0.8,6.3,2.4C187,20.2,187.7,22.6,187.7,25.8z M183.6,27.3v-1.1
			c0-1.9-0.2-3.4-0.7-4.5c-0.5-1.3-1.7-1.9-3.5-1.9c-1.8,0-3,0.6-3.5,1.9c-0.4,1.1-0.7,2.5-0.7,4.5v1.1c0,2.5,0.4,4.2,1.1,5.1
			c0.3,0.4,0.7,0.7,1.2,0.9c0.5,0.3,1.2,0.4,1.9,0.4c0.7,0,1.4-0.1,1.9-0.4c0.5-0.3,0.9-0.6,1.2-0.9c0.3-0.4,0.5-0.9,0.7-1.5
			C183.5,30,183.6,28.8,183.6,27.3z"/>
		<path class="st2" d="M93.6,51.1c0,1.1-0.4,2-1.3,2.7c-0.8,0.7-1.9,1-3.2,1c-1,0-2-0.3-3-0.9c-0.5-0.3-0.9-0.7-1.2-1.3
			c-0.3-0.5-0.5-1.2-0.5-1.8l2.1-0.1c0,0.6,0.3,1.1,0.8,1.4c0.5,0.3,1.1,0.5,1.7,0.5c1.4,0,2.1-0.5,2.1-1.5c0-0.8-0.5-1.3-1.4-1.4
			l-2-0.2c-1-0.1-1.8-0.5-2.4-1.1c-0.6-0.6-0.9-1.4-0.9-2.4c0-1,0.4-1.9,1.2-2.6c0.8-0.7,1.9-1,3.1-1c1.3,0,2.3,0.3,3.1,1
			c0.8,0.6,1.2,1.5,1.2,2.5L91.1,46c-0.2-1-0.9-1.5-2-1.5c-0.7,0-1.2,0.1-1.6,0.4c-0.4,0.3-0.6,0.6-0.6,1c0,0.4,0.1,0.7,0.4,1
			c0.3,0.2,0.6,0.4,1.1,0.4l1.9,0.2C92.5,47.9,93.6,49.1,93.6,51.1z"/>
		<path class="st2" d="M102.6,54.7h-4.3c-1.4,0-2.3-0.2-2.9-0.7c-0.6-0.5-0.8-1.3-0.8-2.5v-8.9h8v2.1H97v2.8h3.9l-0.2,2.1H97v1.7
			c0,0.5,0.1,0.8,0.3,1c0.2,0.2,0.6,0.3,1.2,0.3h4.1V54.7z"/>
		<path class="st2" d="M113.3,54.7h-2.7l-2.4-4.5h-1.7v4.5h-2.4v-9.5c0-0.9,0.2-1.6,0.6-2c0.4-0.4,1.1-0.6,2.1-0.6h2
			c1.2,0,2.2,0.4,2.9,1.1c0.7,0.7,1.1,1.7,1.1,2.8c0,0.8-0.2,1.5-0.6,2.1c-0.4,0.6-1,1-1.6,1.2L113.3,54.7z M109.9,47.7
			c0.3-0.3,0.5-0.8,0.5-1.3c0-0.5-0.2-0.9-0.5-1.3c-0.3-0.3-0.7-0.5-1.3-0.5h-1.2c-0.7,0-1.1,0.4-1.1,1.1v2.5h2.2
			C109.2,48.2,109.6,48.1,109.9,47.7z"/>
		<path class="st2" d="M122.8,42.6L119,54c-0.2,0.5-0.6,0.8-1.1,0.8c-0.5,0-0.9-0.3-1.1-0.8L113,42.6h2.5l2.4,7.9l2.4-7.9H122.8z"/>
		<path class="st2" d="M125.8,54.7h-2.4V42.6h2.4V54.7z"/>
		<path class="st2" d="M133.9,50h2.2c0,1.5-0.4,2.7-1.2,3.6c-0.8,0.8-1.9,1.2-3.3,1.2c-3.1,0-4.7-1.8-4.7-5.5v-1
			c0-2.9,0.8-4.7,2.4-5.4c0.6-0.3,1.4-0.4,2.3-0.4c1.3,0,2.3,0.4,3.2,1.1c0.8,0.7,1.2,1.7,1.2,3.1h-2.2c-0.1-0.7-0.3-1.2-0.7-1.5
			c-0.3-0.3-0.8-0.5-1.5-0.5c-0.8,0-1.4,0.3-1.8,0.7c-0.3,0.4-0.4,1-0.5,1.8c0,0.3,0,0.6,0,1.1v1.1c0,1.3,0.2,2.2,0.5,2.7
			c0.4,0.5,1,0.7,1.7,0.7c0.8,0,1.3-0.2,1.6-0.7C133.6,51.6,133.8,50.9,133.9,50z"/>
		<path class="st2" d="M139.6,54.7h-2.4V42.6h2.4V54.7z"/>
		<path class="st2" d="M150.5,48.1V49c0,2-0.4,3.5-1.2,4.4s-2,1.4-3.7,1.4c-1.7,0-2.9-0.5-3.7-1.4s-1.1-2.4-1.1-4.5v-0.9
			c0-1.9,0.4-3.3,1.2-4.2c0.8-0.9,2-1.4,3.6-1.4c1.7,0,2.9,0.5,3.7,1.4C150.1,44.8,150.5,46.2,150.5,48.1z M148.1,49v-0.6
			c0-1.1-0.1-2-0.4-2.6c-0.3-0.7-1-1.1-2-1.1c-1.1,0-1.7,0.4-2.1,1.1c-0.3,0.6-0.4,1.5-0.4,2.6V49c0,1.5,0.2,2.5,0.6,3
			c0.2,0.2,0.4,0.4,0.7,0.6c0.3,0.2,0.7,0.2,1.1,0.2c0.4,0,0.8-0.1,1.1-0.2c0.3-0.1,0.5-0.3,0.7-0.5c0.2-0.2,0.3-0.5,0.4-0.9
			C148,50.5,148.1,49.8,148.1,49z"/>
		<path class="st2" d="M163,51.1c0,1.1-0.4,2-1.3,2.7c-0.8,0.7-1.9,1-3.2,1c-1,0-2-0.3-3-0.9c-0.5-0.3-0.9-0.7-1.2-1.3
			c-0.3-0.5-0.5-1.2-0.5-1.8l2.1-0.1c0,0.6,0.3,1.1,0.8,1.4c0.5,0.3,1.1,0.5,1.7,0.5c1.4,0,2.1-0.5,2.1-1.5c0-0.8-0.5-1.3-1.4-1.4
			l-2-0.2c-1-0.1-1.8-0.5-2.4-1.1c-0.6-0.6-0.9-1.4-0.9-2.4c0-1,0.4-1.9,1.2-2.6c0.8-0.7,1.9-1,3.1-1c1.3,0,2.3,0.3,3.1,1
			c0.8,0.6,1.2,1.5,1.2,2.5l-2.1,0.1c-0.2-1-0.9-1.5-2-1.5c-0.7,0-1.2,0.1-1.6,0.4c-0.4,0.3-0.6,0.6-0.6,1c0,0.4,0.1,0.7,0.4,1
			c0.3,0.2,0.6,0.4,1.1,0.4l1.9,0.2C161.9,47.9,163,49.1,163,51.1z"/>
		<path class="st2" d="M166.2,52.4c0.2,0.2,0.3,0.5,0.3,1.1c0,0.6-0.1,0.9-0.3,1.1c-0.2,0.2-0.5,0.3-1.1,0.3c-0.6,0-0.9-0.1-1.1-0.3
			c-0.2-0.2-0.3-0.6-0.3-1.1c0-0.6,0.1-0.9,0.3-1.1c0.2-0.2,0.6-0.3,1.1-0.3C165.7,52.2,166,52.2,166.2,52.4z"/>
		<path class="st2" d="M177.4,54.7h-2.5l-0.7-2.1h-4.1l-0.7,2.1H167l3.9-11.1c0.2-0.4,0.4-0.7,0.6-0.8c0.2-0.1,0.5-0.2,0.8-0.2
			c0.3,0,0.6,0.1,0.7,0.2c0.2,0.1,0.4,0.4,0.5,0.8L177.4,54.7z M173.7,50.6l-1.4-4.8l-1.5,4.8H173.7z"/>
		<path class="st2" d="M180.4,52.4c0.2,0.2,0.3,0.5,0.3,1.1c0,0.6-0.1,0.9-0.3,1.1c-0.2,0.2-0.5,0.3-1.1,0.3c-0.6,0-0.9-0.1-1.1-0.3
			c-0.2-0.2-0.3-0.6-0.3-1.1c0-0.6,0.1-0.9,0.3-1.1c0.2-0.2,0.6-0.3,1.1-0.3C179.9,52.2,180.2,52.2,180.4,52.4z"/>
		<path class="st2" d="M190.6,51.1c0,1.1-0.4,2-1.3,2.7c-0.8,0.7-1.9,1-3.2,1c-1,0-2-0.3-3-0.9c-0.5-0.3-0.9-0.7-1.2-1.3
			c-0.3-0.5-0.5-1.2-0.5-1.8l2.1-0.1c0,0.6,0.3,1.1,0.8,1.4c0.5,0.3,1.1,0.5,1.7,0.5c1.4,0,2.1-0.5,2.1-1.5c0-0.8-0.5-1.3-1.4-1.4
			l-2-0.2c-1-0.1-1.8-0.5-2.4-1.1c-0.6-0.6-0.9-1.4-0.9-2.4c0-1,0.4-1.9,1.2-2.6c0.8-0.7,1.9-1,3.1-1c1.3,0,2.3,0.3,3.1,1
			c0.8,0.6,1.2,1.5,1.2,2.5l-2.1,0.1c-0.2-1-0.9-1.5-2-1.5c-0.7,0-1.2,0.1-1.6,0.4c-0.4,0.3-0.6,0.6-0.6,1c0,0.4,0.1,0.7,0.4,1
			c0.3,0.2,0.6,0.4,1.1,0.4l1.9,0.2C189.5,47.9,190.6,49.1,190.6,51.1z"/>
	</g>
	<g>
		<path class="st2" d="M226,29.1c0-0.8-0.3-1.5-0.8-2c-0.5-0.5-1.1-0.9-1.9-1.2c-0.7-0.3-1.5-0.6-2.2-0.9s-1.4-0.7-1.9-1.3
			c-0.5-0.6-0.8-1.3-0.8-2.2c0-1.2,0.4-2.2,1.3-3s2.1-1.3,3.7-1.3c1.6,0,2.7,0.4,3.4,1.2c0.7,0.8,1,1.9,0.8,3.3l-1,0.2
			c0.1-1.1-0.1-2-0.7-2.7c-0.6-0.7-1.5-1-2.7-1c-1.3,0-2.2,0.3-2.9,1s-1,1.4-1,2.3c0,0.7,0.3,1.3,0.8,1.8s1.1,0.9,1.9,1.2
			c0.7,0.3,1.5,0.6,2.2,0.9c0.7,0.3,1.4,0.8,1.9,1.4c0.5,0.6,0.8,1.4,0.8,2.4c0,1.3-0.4,2.4-1.3,3.3c-0.8,0.9-2.2,1.3-4,1.3
			c-1.6,0-2.8-0.4-3.6-1.2c-0.7-0.8-1-1.8-0.9-3l1-0.2c-0.1,0.9,0.2,1.7,0.7,2.4c0.6,0.7,1.5,1,2.8,1c0.8,0,1.5-0.1,2.1-0.3
			s1-0.5,1.3-0.9c0.3-0.4,0.5-0.8,0.6-1.1C226,30,226,29.6,226,29.1z"/>
		<path class="st2" d="M232.6,33.6c-1.3,0-2.2-0.4-2.9-1.1c-0.6-0.7-0.9-1.8-0.9-3.4c0-2.3,0.4-4,1.2-5.2s2-1.7,3.8-1.7
			c1.3,0,2.2,0.4,2.9,1.1c0.6,0.7,0.9,1.9,0.9,3.4c0,2.3-0.4,4-1.2,5.2C235.6,33.1,234.4,33.6,232.6,33.6z M232.7,32.7
			c1.4,0,2.4-0.5,3-1.4c0.6-0.9,0.9-2.4,0.9-4.4c0-1.3-0.2-2.2-0.7-2.8c-0.5-0.6-1.2-0.9-2.2-0.9c-1.4,0-2.4,0.5-3,1.5
			c-0.6,1-0.9,2.4-0.9,4.4c0,1.3,0.2,2.2,0.7,2.8C231,32.4,231.7,32.7,232.7,32.7z"/>
		<path class="st2" d="M241.1,17.2L242,17l-1.6,15.1c0,0.4,0.1,0.6,0.5,0.6l0.5-0.1l-0.1,0.8c-0.2,0.1-0.5,0.1-0.8,0.1
			c-0.8,0-1.2-0.4-1.1-1.3L241.1,17.2z"/>
		<path class="st2" d="M245.5,22.5l-0.8,7.2c-0.2,2.1,0.7,3.1,2.8,3.1c0.6,0,1.2-0.1,1.6-0.3c0.5-0.2,0.8-0.5,1.1-0.9
			c0.2-0.3,0.4-0.7,0.5-1c0.1-0.3,0.2-0.6,0.2-0.9l0.7-7.2h0.9l-1,9.6c-0.1,0.5,0.1,0.7,0.5,0.7l0.5-0.1l-0.1,0.8
			c-0.2,0.1-0.5,0.1-0.8,0.1c-0.8,0-1.2-0.4-1.1-1.3l0.1-0.7l0,0c-0.1,0.1-0.2,0.3-0.3,0.5c-0.1,0.2-0.3,0.4-0.6,0.6
			c-0.3,0.2-0.6,0.4-1.1,0.6s-1,0.2-1.5,0.2c-1.4,0-2.3-0.4-2.8-1.1c-0.5-0.7-0.7-1.6-0.6-2.8l0.8-7.3H245.5z"/>
		<path class="st2" d="M261.6,29.9l0.9,0.2c-0.1,1.1-0.5,2-1.1,2.6c-0.6,0.7-1.7,1-3.2,1c-1.3,0-2.2-0.4-2.9-1.1
			c-0.6-0.7-0.9-1.8-0.9-3.4c0-2.3,0.4-4,1.2-5.2c0.8-1.1,2-1.7,3.8-1.7c2.6,0,3.8,1.2,3.6,3.6l-1,0.2c0.2-1.9-0.7-2.9-2.7-2.9
			c-1.4,0-2.4,0.5-3,1.5c-0.6,1-0.9,2.4-0.9,4.4c0,1.3,0.2,2.2,0.7,2.8c0.5,0.6,1.2,0.9,2.2,0.9c1.1,0,1.9-0.3,2.4-0.8
			C261.2,31.4,261.5,30.7,261.6,29.9z"/>
		<path class="st2" d="M265.6,22.5h1l-1,9.6c-0.1,0.5,0.1,0.7,0.5,0.7l0.5-0.1l-0.1,0.8c-0.2,0.1-0.5,0.1-0.8,0.1
			c-0.8,0-1.2-0.4-1.1-1.3L265.6,22.5z M265.4,19.5c0-0.3,0.1-0.5,0.3-0.7c0.2-0.2,0.5-0.3,0.8-0.3c0.2,0,0.4,0.1,0.6,0.2
			c0.2,0.2,0.2,0.4,0.2,0.6c0,0.3-0.1,0.5-0.3,0.7c-0.2,0.2-0.5,0.3-0.7,0.3c-0.3,0-0.5-0.1-0.6-0.2
			C265.5,19.9,265.4,19.7,265.4,19.5z"/>
		<path class="st2" d="M272.2,33.6c-1.3,0-2.2-0.4-2.9-1.1c-0.6-0.7-0.9-1.8-0.9-3.4c0-2.3,0.4-4,1.2-5.2s2-1.7,3.8-1.7
			c1.3,0,2.2,0.4,2.9,1.1c0.6,0.7,0.9,1.9,0.9,3.4c0,2.3-0.4,4-1.2,5.2C275.2,33.1,273.9,33.6,272.2,33.6z M272.2,32.7
			c1.4,0,2.4-0.5,3-1.4c0.6-0.9,0.9-2.4,0.9-4.4c0-1.3-0.2-2.2-0.7-2.8c-0.5-0.6-1.2-0.9-2.2-0.9c-1.4,0-2.4,0.5-3,1.5
			c-0.6,1-0.9,2.4-0.9,4.4c0,1.3,0.2,2.2,0.7,2.8C270.5,32.4,271.2,32.7,272.2,32.7z M275.5,16.9h1.4l-3,3.7h-0.8L275.5,16.9z"/>
		<path class="st2" d="M280,33.5h-0.9l1-9.6c0.1-0.5-0.1-0.7-0.5-0.7l-0.5,0.1l0.1-0.8c0.2-0.1,0.5-0.1,0.8-0.1c0.8,0,1.1,0.4,1,1.3
			l-0.1,0.7l0,0c0.1-0.1,0.2-0.3,0.3-0.5s0.3-0.4,0.6-0.6c0.3-0.2,0.6-0.4,1.1-0.6s1-0.2,1.6-0.2c1.4,0,2.3,0.4,2.8,1.1
			s0.7,1.6,0.6,2.8l-0.6,5.9c0,0.5,0.1,0.7,0.5,0.7l0.5-0.1l-0.1,0.8c-0.2,0.1-0.5,0.1-0.8,0.1c-0.8,0-1.2-0.4-1.1-1.3l0.6-6
			c0.2-2.1-0.7-3.1-2.8-3.1c-0.8,0-1.4,0.2-2,0.5c-0.5,0.4-0.9,0.8-1.1,1.2c-0.2,0.4-0.3,0.8-0.4,1.2L280,33.5z"/>
		<path class="st2" d="M297.2,30.6l0.8,0.2c-0.1,0.7-0.4,1.4-1.1,2c-0.7,0.6-1.7,0.9-3.1,0.9c-1.3,0-2.2-0.4-2.9-1.1
			c-0.6-0.7-0.9-1.8-0.9-3.4c0-2.3,0.4-4,1.2-5.2s2-1.7,3.8-1.7c1.3,0,2.2,0.3,2.8,0.9s0.9,1.4,0.9,2.3c0,1.1-0.4,2-1.1,2.5
			s-1.7,0.8-2.9,0.8H291c0,1.4,0.2,2.3,0.6,2.9c0.5,0.6,1.2,0.9,2.2,0.9c1.1,0,1.9-0.2,2.5-0.7C296.8,31.6,297.1,31.1,297.2,30.6z
			 M294.9,23.2c-1.1,0-2,0.4-2.6,1.1c-0.6,0.7-1,2-1.2,3.7h3.5c0.9,0,1.6-0.2,2.2-0.6c0.6-0.4,0.9-1,0.9-1.8c0-0.7-0.2-1.2-0.6-1.7
			C296.6,23.5,295.9,23.2,294.9,23.2z"/>
		<path class="st2" d="M306.5,30.5c0-0.5-0.2-0.9-0.6-1.3c-0.4-0.3-0.9-0.6-1.5-0.8c-0.6-0.2-1.1-0.4-1.7-0.6
			c-0.6-0.2-1.1-0.5-1.5-0.9c-0.4-0.4-0.6-0.9-0.6-1.5c0-0.8,0.3-1.5,1-2.1c0.7-0.6,1.6-0.9,2.9-0.9c1.2,0,2.1,0.3,2.7,0.8
			c0.6,0.6,0.8,1.3,0.7,2.3l-1,0.2c0.1-0.7-0.1-1.3-0.5-1.7s-1.1-0.6-2-0.6s-1.7,0.2-2.1,0.6c-0.5,0.4-0.7,0.9-0.7,1.5
			c0,0.5,0.2,0.8,0.6,1.2c0.4,0.3,0.9,0.6,1.5,0.8c0.6,0.2,1.1,0.4,1.7,0.6c0.6,0.2,1.1,0.5,1.5,1c0.4,0.4,0.6,1,0.6,1.7
			c0,0.9-0.3,1.7-1,2.3c-0.6,0.6-1.7,0.9-3.2,0.9c-1.3,0-2.2-0.3-2.8-0.8c-0.6-0.6-0.8-1.3-0.7-2.1l0.9-0.1
			c-0.1,0.6,0.1,1.1,0.6,1.5c0.4,0.4,1.2,0.6,2.2,0.6c1.1,0,1.9-0.2,2.4-0.7C306.3,31.7,306.5,31.1,306.5,30.5z"/>
		<path class="st2" d="M219.3,33.4h1.1l-1.7,16.1h-1.1L219.3,33.4z"/>
		<path class="st2" d="M222.9,49.5H222l1-9.6c0.1-0.5-0.1-0.7-0.5-0.7l-0.5,0.1l0.1-0.8c0.2-0.1,0.5-0.1,0.8-0.1
			c0.8,0,1.1,0.4,1,1.3l-0.1,0.7l0,0c0.1-0.1,0.2-0.3,0.3-0.5c0.1-0.2,0.3-0.4,0.6-0.6s0.6-0.4,1.1-0.6c0.5-0.2,1-0.2,1.6-0.2
			c1.4,0,2.3,0.4,2.8,1.1c0.5,0.7,0.7,1.6,0.6,2.8l-0.6,5.9c0,0.5,0.1,0.7,0.5,0.7l0.5-0.1l-0.1,0.8c-0.2,0.1-0.5,0.1-0.8,0.1
			c-0.8,0-1.2-0.4-1.1-1.3l0.6-6c0.2-2.1-0.7-3.1-2.8-3.1c-0.8,0-1.4,0.2-2,0.5s-0.9,0.8-1.1,1.2c-0.2,0.4-0.3,0.8-0.4,1.2
			L222.9,49.5z"/>
		<path class="st2" d="M241.4,33.1l1,0L240.8,48c-0.1,0.5,0.1,0.7,0.5,0.7l0.5-0.1l-0.1,0.8c-0.2,0.1-0.5,0.1-0.8,0.1
			c-0.8,0-1.2-0.4-1.1-1.2l0.1-0.7l0,0c-0.2,0.5-0.6,1-1.2,1.3s-1.3,0.6-2.1,0.6c-1.3,0-2.2-0.4-2.7-1.1s-0.8-1.9-0.8-3.3
			c0-4.6,1.6-6.9,4.7-6.9c0.8,0,1.5,0.2,2,0.5c0.5,0.3,0.8,0.8,0.9,1.3l0.1,0L241.4,33.1z M240.5,42.9c0-2.5-0.9-3.7-2.8-3.7
			c-1.4,0-2.3,0.5-2.9,1.6s-0.8,2.5-0.8,4.4c0,1.1,0.2,2,0.6,2.6s1.1,0.9,2.1,0.9C239.2,48.7,240.5,46.8,240.5,42.9z"/>
		<path class="st2" d="M245.9,38.4l-0.8,7.2c-0.2,2.1,0.7,3.1,2.8,3.1c0.6,0,1.2-0.1,1.6-0.3c0.5-0.2,0.8-0.5,1.1-0.9
			c0.2-0.3,0.4-0.7,0.5-1c0.1-0.3,0.2-0.6,0.2-0.9l0.7-7.2h0.9l-1,9.6c-0.1,0.5,0.1,0.7,0.5,0.7l0.5-0.1l-0.1,0.8
			c-0.2,0.1-0.5,0.1-0.8,0.1c-0.8,0-1.2-0.4-1.1-1.3l0.1-0.7l0,0c-0.1,0.1-0.2,0.3-0.3,0.5c-0.1,0.2-0.3,0.4-0.6,0.6
			c-0.3,0.2-0.6,0.4-1.1,0.6c-0.5,0.2-1,0.2-1.5,0.2c-1.4,0-2.3-0.4-2.8-1.1c-0.5-0.7-0.7-1.6-0.6-2.8l0.8-7.3H245.9z"/>
		<path class="st2" d="M261.3,46.5c0-0.5-0.2-0.9-0.6-1.3c-0.4-0.3-0.9-0.6-1.5-0.8c-0.6-0.2-1.1-0.4-1.7-0.6
			c-0.6-0.2-1.1-0.5-1.5-0.9c-0.4-0.4-0.6-0.9-0.6-1.5c0-0.8,0.3-1.5,1-2.1c0.7-0.6,1.6-0.9,2.9-0.9c1.2,0,2.1,0.3,2.7,0.8
			s0.8,1.3,0.7,2.3l-1,0.2c0.1-0.7-0.1-1.3-0.5-1.7c-0.4-0.4-1.1-0.6-2-0.6c-1,0-1.7,0.2-2.1,0.6s-0.7,0.9-0.7,1.5
			c0,0.5,0.2,0.8,0.6,1.2c0.4,0.3,0.9,0.6,1.5,0.8c0.6,0.2,1.1,0.4,1.7,0.6s1.1,0.5,1.5,1c0.4,0.4,0.6,1,0.6,1.7
			c0,0.9-0.3,1.7-1,2.3c-0.6,0.6-1.7,0.9-3.2,0.9c-1.3,0-2.2-0.3-2.8-0.8s-0.8-1.3-0.7-2.1l0.9-0.1c-0.1,0.6,0.1,1.1,0.6,1.5
			c0.4,0.4,1.2,0.6,2.2,0.6c1.1,0,1.9-0.2,2.4-0.7C261.1,47.6,261.3,47.1,261.3,46.5z"/>
		<path class="st2" d="M270.3,38.4l-0.1,0.9h-3.5l-0.7,6.6c-0.2,1.8,0.5,2.8,2,2.8c0.2,0,0.5,0,1.1-0.1l-0.1,0.9
			c-0.4,0.1-0.8,0.1-1.2,0.1c-2.1,0-3.1-1.1-2.8-3.4l0.7-6.9h-1.6l0.1-0.9h1.6l0.3-2.9h1l-0.3,2.9H270.3z"/>
		<path class="st2" d="M271.9,49.5H271l1-9.6c0.1-0.5-0.1-0.7-0.5-0.7l-0.5,0.1l0.1-0.8c0.2-0.1,0.5-0.1,0.8-0.1
			c0.8,0,1.1,0.5,1.1,1.4l-0.1,0.7l0,0c0.1-0.3,0.3-0.5,0.5-0.8c0.2-0.3,0.6-0.6,1.2-0.9c0.6-0.3,1.2-0.5,2-0.5c0.2,0,0.4,0,0.6,0.1
			l-0.1,0.9c-0.2,0-0.4,0-0.6,0c-0.7,0-1.3,0.1-1.8,0.4c-0.5,0.3-0.9,0.6-1.2,1c-0.3,0.4-0.5,0.8-0.6,1.2s-0.2,0.8-0.3,1.2
			L271.9,49.5z"/>
		<path class="st2" d="M279.1,38.4h1l-1,9.6c-0.1,0.5,0.1,0.7,0.5,0.7l0.5-0.1l-0.1,0.8c-0.2,0.1-0.5,0.1-0.8,0.1
			c-0.8,0-1.2-0.4-1.1-1.3L279.1,38.4z M278.9,35.4c0-0.3,0.1-0.5,0.3-0.7c0.2-0.2,0.5-0.3,0.8-0.3c0.2,0,0.4,0.1,0.6,0.2
			c0.2,0.2,0.2,0.4,0.2,0.6c0,0.3-0.1,0.5-0.3,0.7c-0.2,0.2-0.5,0.3-0.7,0.3c-0.3,0-0.5-0.1-0.6-0.2S278.9,35.7,278.9,35.4z"/>
		<path class="st2" d="M286.6,38.3c0.8,0,1.5,0.2,2,0.6s0.8,0.8,0.9,1.4l0.1,0l0.2-1.8h0.8l-1,9.5c-0.1,0.5,0.1,0.7,0.6,0.7l0.5-0.1
			l-0.1,0.8c-0.2,0.1-0.5,0.1-0.8,0.1s-0.6-0.1-0.8-0.3c-0.2-0.2-0.2-0.5-0.2-0.8l0.1-0.7l-0.1,0c-0.6,1.2-1.7,1.8-3.3,1.8
			c-2.4,0-3.6-1.5-3.6-4.4c0-2.3,0.4-4,1.2-5.2C283.8,38.9,285,38.3,286.6,38.3z M289.3,43c0-2.5-0.9-3.8-2.8-3.8
			c-1.3,0-2.3,0.5-2.9,1.5c-0.6,1-0.9,2.5-0.9,4.4c0,2.4,0.9,3.6,2.8,3.6c1.3,0,2.2-0.5,2.9-1.5S289.3,44.7,289.3,43z"/>
		<path class="st2" d="M294.4,33.1l0.9-0.2L293.8,48c0,0.4,0.1,0.6,0.5,0.6l0.5-0.1l-0.1,0.8c-0.2,0.1-0.5,0.1-0.8,0.1
			c-0.8,0-1.2-0.4-1.1-1.3L294.4,33.1z"/>
		<path class="st2" d="M303.8,46.5l0.8,0.2c-0.1,0.7-0.4,1.4-1.1,2c-0.7,0.6-1.7,0.9-3.1,0.9c-1.3,0-2.2-0.4-2.9-1.1
			c-0.6-0.7-0.9-1.8-0.9-3.4c0-2.3,0.4-4,1.2-5.2c0.8-1.1,2-1.7,3.8-1.7c1.3,0,2.2,0.3,2.8,0.9c0.6,0.6,0.9,1.4,0.9,2.3
			c0,1.1-0.4,2-1.1,2.5c-0.8,0.5-1.7,0.8-2.9,0.8h-3.5c0,1.4,0.2,2.3,0.6,2.9c0.5,0.6,1.2,0.9,2.2,0.9c1.1,0,1.9-0.2,2.5-0.7
			C303.4,47.6,303.7,47.1,303.8,46.5z M301.5,39.2c-1.1,0-2,0.4-2.6,1.1c-0.6,0.7-1,2-1.2,3.7h3.5c0.9,0,1.6-0.2,2.2-0.6
			c0.6-0.4,0.9-1,0.9-1.8c0-0.7-0.2-1.2-0.6-1.7C303.2,39.4,302.5,39.2,301.5,39.2z"/>
		<path class="st2" d="M313.1,46.5c0-0.5-0.2-0.9-0.6-1.3c-0.4-0.3-0.9-0.6-1.5-0.8c-0.6-0.2-1.1-0.4-1.7-0.6
			c-0.6-0.2-1.1-0.5-1.5-0.9c-0.4-0.4-0.6-0.9-0.6-1.5c0-0.8,0.3-1.5,1-2.1s1.6-0.9,2.9-0.9c1.2,0,2.1,0.3,2.7,0.8s0.8,1.3,0.7,2.3
			l-1,0.2c0.1-0.7-0.1-1.3-0.5-1.7c-0.4-0.4-1.1-0.6-2-0.6c-1,0-1.7,0.2-2.1,0.6s-0.7,0.9-0.7,1.5c0,0.5,0.2,0.8,0.6,1.2
			c0.4,0.3,0.9,0.6,1.5,0.8c0.6,0.2,1.1,0.4,1.7,0.6s1.1,0.5,1.5,1c0.4,0.4,0.6,1,0.6,1.7c0,0.9-0.3,1.7-1,2.3
			c-0.6,0.6-1.7,0.9-3.2,0.9c-1.3,0-2.2-0.3-2.8-0.8s-0.8-1.3-0.7-2.1l0.9-0.1c-0.1,0.6,0.1,1.1,0.6,1.5c0.4,0.4,1.2,0.6,2.2,0.6
			c1.1,0,1.9-0.2,2.4-0.7C312.9,47.6,313.1,47.1,313.1,46.5z"/>
	</g>
</g>
</svg>
